<svg xmlns="http://www.w3.org/2000/svg" role="img" viewBox="-0.052 0.314 24.628 24.55"><title>Misskey</title><path d="M 9.005 16.698 C 7.957 16.702 7.059 16.086 6.634 15.368 C 6.408 15.056 5.959 14.944 5.953 15.368 L 5.953 17.33 C 5.953 18.119 5.66 18.801 5.07 19.376 C 4.499 19.934 3.801 20.213 2.977 20.213 C 2.17 20.213 1.472 19.934 0.884 19.376 C 0.312 18.801 0.026 18.119 0.026 17.33 L 0.026 6.54 C 0.026 5.933 0.204 5.383 0.556 4.89 C 0.926 4.381 1.397 4.027 1.968 3.83 C 2.291 3.715 2.632 3.657 2.977 3.658 C 3.885 3.658 4.642 4.003 5.247 4.693 L 8.267 8.116 C 8.334 8.165 8.532 8.542 9.004 8.542 C 9.478 8.542 9.702 8.165 9.768 8.116 L 12.763 4.693 C 13.385 4.003 14.15 3.658 15.058 3.658 C 15.395 3.658 15.731 3.715 16.067 3.83 C 16.638 4.027 17.101 4.381 17.454 4.89 C 17.824 5.383 18.008 5.933 18.008 6.54 L 18.008 17.33 C 18.008 18.119 17.715 18.801 17.127 19.376 C 16.554 19.934 15.856 20.213 15.033 20.213 C 14.226 20.213 13.529 19.934 12.939 19.376 C 12.368 18.801 12.082 18.119 12.082 17.33 L 12.082 15.368 C 12.032 14.834 11.548 15.171 11.375 15.368 C 10.922 16.19 10.052 16.695 9.005 16.698 Z M 21.636 8.634 C 20.931 8.634 20.326 8.396 19.821 7.919 C 19.334 7.428 19.09 6.837 19.09 6.146 C 19.09 5.457 19.334 4.873 19.821 4.397 C 20.326 3.904 20.931 3.659 21.636 3.659 C 22.343 3.659 22.949 3.904 23.454 4.397 C 23.958 4.873 24.209 5.457 24.209 6.146 C 24.209 6.837 23.958 7.428 23.454 7.919 C 22.949 8.396 22.343 8.634 21.636 8.634 Z M 21.662 9.127 C 22.369 9.127 22.965 9.373 23.454 9.866 C 23.958 10.359 24.209 10.95 24.209 11.64 L 24.209 17.725 C 24.209 18.415 23.958 19.006 23.454 19.498 C 22.966 19.974 22.369 20.213 21.662 20.213 C 20.956 20.213 20.351 19.974 19.846 19.498 C 19.343 19.006 19.09 18.415 19.09 17.725 L 19.09 11.64 C 19.09 10.95 19.343 10.359 19.846 9.866 C 20.35 9.373 20.956 9.127 21.662 9.127 Z" style="fill:#fff"/></svg>